<?xml version="1.0" encoding="UTF-8" standalone="no"?><!DOCTYPE svg PUBLIC "-//W3C//DTD SVG 1.1//EN" "http://www.w3.org/Graphics/SVG/1.1/DTD/svg11.dtd"><svg width="100%" height="100%" viewBox="0 0 166 166" version="1.1" xmlns="http://www.w3.org/2000/svg" xmlns:xlink="http://www.w3.org/1999/xlink" xml:space="preserve" xmlns:serif="http://www.serif.com/" style="fill-rule:evenodd;clip-rule:evenodd;"><g><circle cx="82.573" cy="82.573" r="61.099" style="fill:none;stroke:#ffffff;stroke-width:10.42px;"/><path d="M93.98,104.652c-0.297,-0.593 -0.549,-1.276 -0.757,-2.047c-0.208,-0.772 -0.386,-1.588 -0.534,-2.448c-0.682,0.742 -1.469,1.439 -2.359,2.092c-0.89,0.653 -1.884,1.231 -2.982,1.736c-1.068,0.474 -2.255,0.845 -3.56,1.112c-1.306,0.297 -2.715,0.445 -4.228,0.445c-2.463,0 -4.733,-0.356 -6.809,-1.068c-2.048,-0.712 -3.813,-1.706 -5.296,-2.982c-1.484,-1.275 -2.641,-2.789 -3.472,-4.539c-0.831,-1.781 -1.246,-3.709 -1.246,-5.786c0,-5.074 1.884,-8.99 5.652,-11.75c3.798,-2.788 9.45,-4.183 16.957,-4.183l6.898,0l0,-2.848c0,-2.315 -0.757,-4.139 -2.27,-5.474c-1.513,-1.365 -3.694,-2.048 -6.542,-2.048c-2.522,0 -4.362,0.549 -5.519,1.647c-1.157,1.068 -1.736,2.507 -1.736,4.317l-12.372,-0c-0,-2.047 0.445,-3.991 1.335,-5.83c0.92,-1.84 2.24,-3.457 3.961,-4.851c1.751,-1.395 3.872,-2.492 6.364,-3.294c2.522,-0.831 5.4,-1.246 8.635,-1.246c2.907,0 5.607,0.356 8.1,1.068c2.522,0.712 4.702,1.766 6.542,3.16c1.839,1.395 3.278,3.16 4.317,5.296c1.038,2.107 1.558,4.555 1.558,7.344l-0,20.65c-0,2.582 0.163,4.718 0.489,6.409c0.326,1.691 0.801,3.145 1.424,4.361l0,0.757l-12.55,0Zm-11.794,-8.678c1.246,-0 2.403,-0.149 3.471,-0.445c1.068,-0.297 2.033,-0.683 2.893,-1.158c0.86,-0.474 1.602,-1.009 2.225,-1.602c0.623,-0.623 1.113,-1.246 1.469,-1.869l0,-8.278l-6.32,0c-1.928,0 -3.575,0.193 -4.94,0.578c-1.365,0.357 -2.477,0.876 -3.338,1.558c-0.86,0.653 -1.498,1.454 -1.914,2.404c-0.415,0.919 -0.622,1.928 -0.622,3.026c-0,1.662 0.578,3.041 1.735,4.139c1.187,1.098 2.967,1.647 5.341,1.647Z" style="fill:#ffffff;fill-rule:nonzero;"/></g></svg>