<?xml version="1.0" encoding="UTF-8"?>
<svg width="1191px" height="512px" viewBox="0 0 1191 512" version="1.1" xmlns="http://www.w3.org/2000/svg" xmlns:xlink="http://www.w3.org/1999/xlink">
    <g id="echo-with-label" stroke="none" stroke-width="1" fill="none" fill-rule="evenodd">
        <g id="echo" transform="translate(15.000000, 56.000000)" fill="#FFFFFF" fill-rule="nonzero">
            <path d="M241,32.3205081 L95.9632394,116.160254 L95.9632394,283.839746 L241,367.679492 L386.036761,283.839746 L386.036761,116.160254 L241,32.3205081 Z M248.49081,2.00961894 L408.50919,94.5096189 C413.144519,97.1891109 416,102.141016 416,107.5 L416,292.5 C416,297.858984 413.144519,302.810889 408.50919,305.490381 L248.49081,397.990381 C243.855481,400.669873 238.144519,400.669873 233.50919,397.990381 L73.4908099,305.490381 C68.8554806,302.810889 66,297.858984 66,292.5 L66,107.5 C66,102.141016 68.8554806,97.1891109 73.4908099,94.5096189 L233.50919,2.00961894 C238.144519,-0.669872981 243.855481,-0.669872981 248.49081,2.00961894 Z" id="Polygon"></path>
            <path d="M73.4939579,120.038079 C66.3276363,115.88915 63.8723715,106.700421 68.0099706,99.5144772 C72.1475697,92.3285334 81.311208,89.8665459 88.4775296,94.0154741 L248.508544,186.665126 C253.144282,189.348978 256,194.308843 256,199.676428 L256,384.975732 C256,393.273406 249.291774,400 241.016758,400 C232.741742,400 226.033516,393.273406 226.033516,384.975732 L226.033516,208.350566 L73.4939579,120.038079 Z" id="Path"></path>
            <path d="M451.986834,270.999687 C451.986834,262.715589 458.70551,256 466.993417,256 C475.281324,256 482,262.715589 482,270.999687 L482,330.998435 C482,336.357307 479.139761,341.309109 474.496709,343.988545 L422.51238,373.987918 C415.334842,378.129968 406.15696,375.671892 402.013007,368.497652 C397.869053,361.323412 400.328259,352.149748 407.505797,348.007699 L451.986834,322.338361 L451.986834,270.999687 Z" id="Path"></path>
            <path d="M30.013166,77.6616386 L30.013166,129.000313 C30.013166,137.284411 23.2944899,144 15.006583,144 C6.71867605,144 0,137.284411 0,129.000313 L0,69.0015654 C0,63.6426934 2.86023856,58.6908914 7.50329149,56.0114554 L59.4876198,26.0120816 C66.6651577,21.8700324 75.8430399,24.3281084 79.9869934,31.502348 C84.1309468,38.6765877 81.6717407,47.8502523 74.4942028,51.9923014 L30.013166,77.6616386 Z" id="Path"></path>
            <path d="M170.457665,141.999974 L170.508862,142.029425 C180.49377,147.773103 180.497864,162.130508 170.516232,167.879838 L88.7164402,214.995783 C86.4370054,216.308717 83.8505495,217 81.2176016,217 L81.0078451,217 C65.6792018,217 60.2414801,196.781569 73.5163772,189.14537 L155.474729,141.999974 C160.110447,139.333342 165.821946,139.333342 170.457665,141.999974 Z" id="Path"></path>
            <path d="M222.485548,172.002695 L222.502723,172.01258 C232.495814,177.764074 232.499911,192.141015 222.510099,197.898168 L88.7350565,274.993056 C86.4537537,276.307777 83.8651782,277 81.2300725,277 L81.0201442,277 C65.678939,277 60.236761,256.754058 73.522537,249.107468 L207.490334,172.002695 C212.129851,169.332435 217.846031,169.332435 222.485548,172.002695 Z" id="Path"></path>
            <path d="M98.5164929,293.937398 L233.261612,216.253135 C250.620464,206.245281 265.65581,232.231574 248.302655,242.249275 L113.645904,319.984485 C108.993381,322.670313 103.258913,322.67194 98.6048614,319.988751 L98.5164929,319.937805 C88.4945024,314.159852 88.4945024,299.715351 98.5164929,293.937398 Z" id="Path"></path>
            <path d="M150.521512,323.941766 L233.246428,276.254366 C250.616871,266.241044 265.662257,292.241535 248.297515,302.26471 L165.626852,349.983384 C160.971221,352.670679 155.232924,352.672307 150.575765,349.987653 L150.521512,349.956378 C140.492829,344.175269 140.492829,329.722876 150.521512,323.941766 Z" id="Path"></path>
        </g>
        <path d="M680.2,213.44089 L680.2,241.880389 L726,241.880389 L726,268.317107 L680.2,268.317107 L680.2,299.159944 L732,299.159944 L732,326.598053 L646,326.598053 L646,186.002782 L732,186.002782 L732,213.44089 L680.2,213.44089 Z M748.4,256.100139 C748.4,242.214117 751.39997,229.830374 757.4,218.94854 C763.40003,208.066705 771.766613,199.588347 782.5,193.513213 C793.233387,187.438078 805.399932,184.400556 819,184.400556 C835.66675,184.400556 849.933274,188.806632 861.8,197.618915 C873.666726,206.431198 881.59998,218.447768 885.6,233.668985 L848,233.668985 C845.199986,227.794129 841.233359,223.321295 836.1,220.250348 C830.966641,217.179401 825.133366,215.64395 818.6,215.64395 C808.066614,215.64395 799.533366,219.31568 793,226.659249 C786.466634,234.002818 783.2,243.81635 783.2,256.100139 C783.2,268.383928 786.466634,278.19746 793,285.541029 C799.533366,292.884599 808.066614,296.556328 818.6,296.556328 C825.133366,296.556328 830.966641,295.020878 836.1,291.94993 C841.233359,288.878983 845.199986,284.406149 848,278.531293 L885.6,278.531293 C881.59998,293.75251 873.666726,305.7357 861.8,314.481224 C849.933274,323.226747 835.66675,327.599444 819,327.599444 C805.399932,327.599444 793.233387,324.561922 782.5,318.486787 C771.766613,312.411653 763.40003,303.966674 757.4,293.151599 C751.39997,282.336525 748.4,269.986161 748.4,256.100139 Z M1028.2,186.002782 L1028.2,326.598053 L994,326.598053 L994,268.717663 L940.8,268.717663 L940.8,326.598053 L906.6,326.598053 L906.6,186.002782 L940.8,186.002782 L940.8,241.079277 L994,241.079277 L994,186.002782 L1028.2,186.002782 Z M1119.2,328 C1105.99993,328 1093.90006,324.929099 1082.9,318.787204 C1071.89995,312.64531 1063.1667,304.066814 1056.7,293.05146 C1050.2333,282.036106 1047,269.652364 1047,255.899861 C1047,242.147358 1050.2333,229.796995 1056.7,218.848401 C1063.1667,207.899806 1071.89995,199.35469 1082.9,193.212796 C1093.90006,187.070901 1105.99993,184 1119.2,184 C1132.40007,184 1144.49995,187.070901 1155.5,193.212796 C1166.50005,199.35469 1175.16664,207.899806 1181.5,218.848401 C1187.83336,229.796995 1191,242.147358 1191,255.899861 C1191,269.652364 1187.80003,282.036106 1181.4,293.05146 C1174.99997,304.066814 1166.33339,312.64531 1155.4,318.787204 C1144.46661,324.929099 1132.40007,328 1119.2,328 Z M1119.2,296.756606 C1130.40006,296.756606 1139.36663,293.018118 1146.1,285.541029 C1152.83337,278.06394 1156.2,268.18365 1156.2,255.899861 C1156.2,243.482553 1152.83337,233.568883 1146.1,226.158554 C1139.36663,218.748224 1130.40006,215.043115 1119.2,215.043115 C1107.86661,215.043115 1098.83337,218.714845 1092.1,226.058414 C1085.36663,233.401984 1082,243.349033 1082,255.899861 C1082,268.317169 1085.36663,278.230839 1092.1,285.641168 C1098.83337,293.051497 1107.86661,296.756606 1119.2,296.756606 Z" id="ECHO" fill="#FFFFFF" fill-rule="nonzero"></path>
    </g>
</svg>