<?xml version="1.0" encoding="UTF-8"?>
<svg width="250px" height="250px" viewBox="0 0 250 250" version="1.1" xmlns="http://www.w3.org/2000/svg" xmlns:xlink="http://www.w3.org/1999/xlink">
    <title>feature-wallet</title>
    <g id="feature-wallet" stroke="none" stroke-width="1" fill="none" fill-rule="evenodd">
        <polyline id="Path" stroke="#16171C" points="215 141 215 185 55 185 55 35 215 35 215 79"></polyline>
        <path d="M155,80 L225,80 L225,140 L155,140 C138.431458,140 125,126.568542 125,110 L125,110 C125,93.4314575 138.431458,80 155,80 Z" id="Rectangle" stroke="#16171C"></path>
        <rect id="Rectangle" stroke="#16171C" x="155" y="102" width="24" height="16"></rect>
        <path d="M215.260497,185.302994 L185.260497,215.302994 L215.260497,185.302994 L215.260497,185.302994 Z M201.118362,185.302994 L171.118362,215.302994 L201.118362,185.302994 Z M186.976226,185.302994 L156.976226,215.302994 L186.976226,185.302994 Z M172.834091,185.302994 L142.834091,215.302994 L172.834091,185.302994 L172.834091,185.302994 Z M158.691955,185.302994 L128.691955,215.302994 L158.691955,185.302994 L158.691955,185.302994 Z M144.549819,185.302994 L114.549819,215.302994 L144.549819,185.302994 L144.549819,185.302994 Z M130.407684,185.302994 L100.407684,215.302994 L130.407684,185.302994 L130.407684,185.302994 Z M116.265548,185.302994 L86.265548,215.302994 L116.265548,185.302994 L116.265548,185.302994 Z M102.123412,185.302994 L72.1234124,215.302994 L102.123412,185.302994 L102.123412,185.302994 Z M87.9812768,185.302994 L57.9812768,215.302994 L87.9812768,185.302994 L87.9812768,185.302994 Z M73.8391411,185.302994 L43.8391411,215.302994 L73.8391411,185.302994 L73.8391411,185.302994 Z M59.6970055,185.302994 L29.6970055,215.302994 L59.6970055,185.302994 Z M55.3029945,175.55487 L25.3029945,205.55487 L55.3029945,175.55487 Z M55.3029945,161.412734 L25.3029945,191.412734 L55.3029945,161.412734 L55.3029945,161.412734 Z M55.3029945,147.270599 L25.3029945,177.270599 L55.3029945,147.270599 Z M55.3029945,133.128463 L25.3029945,163.128463 L55.3029945,133.128463 L55.3029945,133.128463 Z M55.3029945,118.986327 L25.3029945,148.986327 L55.3029945,118.986327 Z M55.3029945,104.844192 L25.3029945,134.844192 L55.3029945,104.844192 Z M55.3029945,90.7020561 L25.3029945,120.702056 L55.3029945,90.7020561 L55.3029945,90.7020561 Z M55.3029945,76.5599205 L25.3029945,106.559921 L55.3029945,76.5599205 L55.3029945,76.5599205 Z M55.3029945,62.4177849 L25.3029945,92.4177849 L55.3029945,62.4177849 L55.3029945,62.4177849 Z M55.3029945,48.2756493 L25.3029945,78.2756493 L55.3029945,48.2756493 L55.3029945,48.2756493 Z M54.1335137,35.3029945 L25.3029945,64.1335137 L54.1335137,35.3029945 L54.1335137,35.3029945 Z" id="Shape" stroke="#4E75F6"></path>
    </g>
</svg>