<?xml version="1.0" encoding="UTF-8"?>
<svg width="250px" height="250px" viewBox="0 0 250 250" version="1.1" xmlns="http://www.w3.org/2000/svg" xmlns:xlink="http://www.w3.org/1999/xlink">
    <title>feature-decentralized</title>
    <g id="feature-decentralized" stroke="none" stroke-width="1" fill="none" fill-rule="evenodd">
        <path d="M101.901961,25 L131.901911,25 L101.901961,25 Z M84.9215686,35 L114.921021,35 L84.9215686,35 Z M67.9411765,45 L97.9401304,45 L67.9411765,45 L67.9411765,45 Z M50.9607843,55 L80.9592402,55 L50.9607843,55 Z M33.9803922,65 L63.9783499,65 L33.9803922,65 Z M17,75 L46.9974596,75 M46.9974596,85 L17,85 L46.9974596,85 L46.9974596,85 M17,95 L46.9974596,95 L17,95 Z M17,105 L46.9974596,105 L17,105 Z M17,115 L46.9974596,115 L17,115 Z M17,125 L46.9974596,125 L17,125 Z M17,135 L46.9974596,135 L17,135 Z M17,145 L46.9974596,145 L17,145 Z M17,155 L46.9974596,155 L17,155 Z M17,165 L46.9974596,165 L17,165 Z M17,175 L46.9974596,175 M63.9783499,185 L33.9803922,185 L63.9783499,185 L63.9783499,185 M50.9607843,195 L80.9592402,195 L50.9607843,195 L50.9607843,195 Z M67.9411765,205 L97.9401304,205 L67.9411765,205 L67.9411765,205 Z M84.9215686,215 L114.921021,215 L84.9215686,215 Z M101.901961,225 L131.901911,225 L101.901961,225 L101.901961,225 Z" id="Shape" stroke="#4E75F6"></path>
        <polygon id="Polygon" stroke="#16171C" points="133.6 25 220.20254 75 220.20254 175 133.6 225 46.9974596 175 46.9974596 75"></polygon>
        <polygon id="Polygon" stroke="#16171C" points="133.6 85 168.241016 105 168.241016 145 133.6 165 98.9589838 145 98.9589838 105"></polygon>
        <path d="M46.9974596,75 L98.9589838,105" id="Path" stroke="#16171C"></path>
        <path d="M133.6,165 L133.6,225" id="Path" stroke="#16171C"></path>
    </g>
</svg>