<?xml version="1.0" encoding="UTF-8"?>
<svg width="250px" height="250px" viewBox="0 0 250 250" version="1.1" xmlns="http://www.w3.org/2000/svg" xmlns:xlink="http://www.w3.org/1999/xlink">
    <title>feature-storage</title>
    <g id="feature-storage" stroke="none" stroke-width="1" fill="none" fill-rule="evenodd">
        <path d="M66.9576298,34.9078105 L36.9576298,64.9078105 L66.9576298,34.9078105 L66.9576298,34.9078105 Z M52.8154942,34.9078105 L35.1946071,52.5286976 L52.8154942,34.9078105 L52.8154942,34.9078105 Z M38.6733585,34.9078105 L35.1946071,38.386562 L38.6733585,34.9078105 L38.6733585,34.9078105 Z M81.0997654,34.9078105 L51.0997654,64.9078105 L81.0997654,34.9078105 L81.0997654,34.9078105 Z M95.241901,34.9078105 L65.241901,64.9078105 L95.241901,34.9078105 L95.241901,34.9078105 Z M109.384037,34.9078105 L79.3840367,64.9078105 L109.384037,34.9078105 Z M123.526172,34.9078105 L93.5261723,64.9078105 L123.526172,34.9078105 L123.526172,34.9078105 Z M137.668308,34.9078105 L107.668308,64.9078105 L137.668308,34.9078105 L137.668308,34.9078105 Z M151.810444,34.9078105 L121.810444,64.9078105 L151.810444,34.9078105 L151.810444,34.9078105 Z M165.952579,34.9078105 L135.952579,64.9078105 L165.952579,34.9078105 Z M179.644661,35.3578644 L150.094715,64.9078105 L179.644661,35.3578644 L179.644661,35.3578644 Z M186.715729,42.4289322 L159.715729,69.4289322 L186.715729,42.4289322 L186.715729,42.4289322 Z M193.786797,49.5 L166.786797,76.5 L193.786797,49.5 Z M200.857864,56.5710678 L173.857864,83.5710678 L200.857864,56.5710678 L200.857864,56.5710678 Z M207.928932,63.6421356 L180.928932,90.6421356 L207.928932,63.6421356 Z M215,70.7132034 L185.194607,100.518596 L215,70.7132034 L215,70.7132034 Z M215.194607,84.660732 L185.194607,114.660732 L215.194607,84.660732 L215.194607,84.660732 Z M215.194607,98.8028676 L185.194607,128.802868 L215.194607,98.8028676 L215.194607,98.8028676 Z M215.194607,112.945003 L185.194607,142.945003 L215.194607,112.945003 L215.194607,112.945003 Z M215.194607,127.087139 L185.194607,157.087139 L215.194607,127.087139 L215.194607,127.087139 Z M215.194607,141.229274 L185.194607,171.229274 L215.194607,141.229274 L215.194607,141.229274 Z M215.194607,155.37141 L185.194607,185.37141 L215.194607,155.37141 L215.194607,155.37141 Z M215.194607,169.513546 L185.194607,199.513546 L215.194607,169.513546 L215.194607,169.513546 Z M215.194607,183.655681 L185.194607,213.655681 L215.194607,183.655681 L215.194607,183.655681 Z M215.194607,197.797817 L198.084614,214.907811 L215.194607,197.797817 Z M215.194607,211.939953 L212.226749,214.907811 L215.194607,211.939953 L215.194607,211.939953 Z" id="Shape" stroke="#4E75F6"></path>
        <polygon id="Rectangle" stroke="#16171C" points="35.1946071 64.9078105 155.194607 64.9078105 185.194607 94.9078105 185.194607 214.907811 35.1946071 214.907811"></polygon>
        <rect id="Rectangle" stroke="#16171C" x="60.1946071" y="154.694607" width="100" height="60"></rect>
        <rect id="Rectangle" stroke="#16171C" x="65.1946071" y="76.6946071" width="80" height="40"></rect>
        <rect id="Rectangle" stroke="#16171C" x="121.194607" y="84.6946071" width="16" height="24"></rect>
    </g>
</svg>