<?xml version="1.0" encoding="UTF-8"?>
<svg width="1999px" height="1399px" viewBox="0 0 1999 1399" version="1.1" xmlns="http://www.w3.org/2000/svg" xmlns:xlink="http://www.w3.org/1999/xlink">
    <title>1_画板 1 副本</title>
    <g id="网页端(1000-1500)" stroke="none" stroke-width="1" fill="none" fill-rule="evenodd">
        <g id="画板" fill="#CEECF6" fill-rule="nonzero">
            <g id="1_画板-1-副本" transform="translate(999.500000, 699.500000) rotate(-90.000000) translate(-999.500000, -699.500000) translate(300.000000, -300.000000)">
                <path d="M1054.60696,-1.25709994e-13 L342.012168,-1.25709994e-13 C236.896698,0.725589837 176.54161,122.261887 236.658611,209.816394 L402.724387,451.679673 C448.318074,518.071143 528.434394,550.601754 606.526974,534.517846 C638.787781,527.866606 671.524762,524.722384 704.380786,525.085178 C953.181841,527.624743 1158.65104,731.878282 1166.26983,984.504477 C1174.60288,1258.41464 954.13419,1482.2591 684.381467,1473.55203 C450.937032,1465.93333 244.2774,1259.50302 233.087304,1022.47701 C228.444605,927.787538 251.896188,833.823654 300.465963,752.799456 C343.440691,681.086993 339.274166,589.904537 292.01387,520.973503 L132.852621,289.268482 C94.044418,232.672474 5.59504765,256.254144 0.833304969,325.185178 C0.238087134,333.40853 0,341.631881 0,349.855233 L0,1649.14477 C0,1842.39353 154.161419,1999 344.393039,1999 L1054.60696,1999 C1244.83858,1999 1399,1842.39353 1399,1649.14477 L1399,349.855233 C1399,156.606473 1244.83858,-1.25709994e-13 1054.60696,-1.25709994e-13 Z" id="路径"></path>
                <ellipse id="椭圆形" cx="699" cy="999" rx="132" ry="134"></ellipse>
            </g>
        </g>
    </g>
</svg>