<svg width="192" height="192" viewBox="0 0 192 192" fill="none" xmlns="http://www.w3.org/2000/svg">
<path d="M86.9331 147.863C89.9148 156.24 94.5021 156.24 96.0094 156.24C100.498 156.24 103.742 152.848 105.643 146.065C106.386 143.425 106.62 140.66 106.331 137.926C105.291 128.792 101.731 120.161 96.0749 113.067C90.7269 119.686 87.2061 127.677 85.8846 136.197C85.2697 140.114 85.6306 144.13 86.9331 147.863V147.863Z" fill="#4E51F4"/>
<path d="M95.8455 98.1452C114.096 80.5779 143.095 69.0133 175.992 67.6229C176.664 67.6051 177.303 67.3139 177.769 66.8124C178.235 66.3109 178.491 65.6395 178.482 64.9437V21.7715C178.455 20.1707 178.001 18.6088 177.17 17.2585C176.339 15.9082 175.163 14.822 173.773 14.1201C172.383 13.4182 170.832 13.1278 169.292 13.2811C167.752 13.4344 166.284 14.0254 165.048 14.9888L95.8783 69.2507L26.6756 15.1923C25.429 14.2206 23.9452 13.6282 22.391 13.4815C20.8369 13.3349 19.274 13.6399 17.8782 14.3623C16.4824 15.0846 15.3089 16.1957 14.4898 17.5705C13.6706 18.9453 13.2383 20.5294 13.2413 22.1446V65.1811C13.2571 65.875 13.526 66.5369 13.9941 67.034C14.4621 67.531 15.0946 67.8262 15.7644 67.8603C48.498 69.149 77.4963 80.7814 95.8455 98.1452Z" fill="#4E51F4"/>
<path d="M102.727 105.742C110.123 114.507 114.784 125.384 116.095 136.942C116.525 140.997 116.18 145.099 115.08 149.016C111.803 160.105 104.988 166.447 96.0096 166.447C87.6541 166.447 81.1664 161.123 77.6931 151.424C75.8404 146.106 75.3108 140.391 76.1531 134.806C77.8049 123.988 82.3444 113.862 89.2597 105.572C72.2211 89.3954 44.599 78.7125 13.4054 77.7969L13.6348 162.344C13.639 164.51 14.0565 166.653 14.8632 168.651C15.6699 170.65 16.85 172.463 18.3356 173.989C19.8213 175.514 21.5834 176.72 23.5207 177.539C25.458 178.357 27.5323 178.771 29.6248 178.758H162.853C164.947 178.758 167.021 178.331 168.955 177.5C170.889 176.67 172.646 175.453 174.125 173.919C175.604 172.384 176.776 170.563 177.575 168.56C178.373 166.556 178.782 164.409 178.778 162.242L178.548 77.9664C147.584 78.7465 119.732 89.531 102.727 105.742Z" fill="#4E51F4"/>
</svg>
